<svg xmlns="http://www.w3.org/2000/svg" width="40" height="40" viewBox="0 0 40 40">
  <defs>
    <style>
      .cls-1 {
        fill: #fff;
        fill-rule: evenodd;
        opacity: 0.2;
      }
    </style>
  </defs>
  <path id="fb" class="cls-1" d="M967,1574a20,20,0,1,0-20-20A20,20,0,0,0,967,1574Zm0-38.33A18.33,18.33,0,1,1,948.667,1554,18.334,18.334,0,0,1,967,1535.67Zm-5.788,18.41H963.3V1564h4.07v-9.92h3.159l0.77-2.88h-3.929v-1.36a2.417,2.417,0,0,1,.432-1.68,3.479,3.479,0,0,1,1.9-.47,4.308,4.308,0,0,1,2.106.7l0.981-3.66a14.492,14.492,0,0,0-3.955-.73,7.657,7.657,0,0,0-3.334.64,3.951,3.951,0,0,0-1.74,1.85,6.688,6.688,0,0,0-.464,2.87v1.84h-2.083v2.88Z" transform="translate(-947 -1534)"/>
</svg>
