<svg xmlns="http://www.w3.org/2000/svg" width="40" height="40" viewBox="0 0 40 40">
  <defs>
    <style>
      .cls-1 {
        fill: #fff;
        fill-rule: evenodd;
        opacity: 0.2;
      }
    </style>
  </defs>
  <path id="Instagram" class="cls-1" d="M1095.5,1544h15a2.5,2.5,0,0,1,2.5,2.5v15a2.5,2.5,0,0,1-2.5,2.5h-15a2.5,2.5,0,0,1-2.5-2.5v-15A2.5,2.5,0,0,1,1095.5,1544Zm12.83,2h1.34a1.336,1.336,0,0,1,1.33,1.33v1.34a1.336,1.336,0,0,1-1.33,1.33h-1.34a1.336,1.336,0,0,1-1.33-1.33v-1.34A1.336,1.336,0,0,1,1108.33,1546Zm-12,7h13.34a1.315,1.315,0,0,1,1.33,1.29v6.42a1.315,1.315,0,0,1-1.33,1.29h-13.34a1.315,1.315,0,0,1-1.33-1.29v-6.42A1.315,1.315,0,0,1,1096.33,1553Zm6.67-5a6,6,0,1,1-6,6A6,6,0,0,1,1103,1548Zm-3.89,6s0.31-4,3.89-4,3.89,4,3.89,4,0.11,4-3.89,4S1099.11,1554,1099.11,1554Zm3.89,20a20,20,0,1,0-20-20A19.994,19.994,0,0,0,1103,1574Zm0-38.33a18.33,18.33,0,1,1-18.33,18.33A18.334,18.334,0,0,1,1103,1535.67Z" transform="translate(-1083 -1534)"/>
</svg>
