<svg xmlns="http://www.w3.org/2000/svg" width="40" height="40" viewBox="0 0 40 40">
  <defs>
    <style>
      .cls-1 {
        fill: #fff;
        fill-rule: evenodd;
        opacity: 0.2;
      }
    </style>
  </defs>
  <path id="pin" class="cls-1" d="M1171,1574a20,20,0,1,0-20-20A19.994,19.994,0,0,0,1171,1574Zm0-38.33a18.33,18.33,0,1,1-18.33,18.33A18.334,18.334,0,0,1,1171,1535.67Zm-5.04,27.21a11.676,11.676,0,0,1,.22-2.97c0.24-1.05,1.63-7.05,1.63-7.05a4.953,4.953,0,0,1-.41-2.04c0-1.92,1.09-3.35,2.44-3.35a1.712,1.712,0,0,1,1.7,1.94c0,1.18-.74,2.95-1.11,4.59a1.986,1.986,0,0,0,1.99,2.49c2.39,0,4-3.15,4-6.87,0-2.84-1.86-4.96-5.25-4.96a6.056,6.056,0,0,0-6.22,6.19,3.845,3.845,0,0,0,.83,2.54,0.634,0.634,0,0,1,.19.72c-0.06.24-.2,0.81-0.26,1.04a0.435,0.435,0,0,1-.63.32c-1.77-.74-2.59-2.72-2.59-4.94,0-3.67,3.03-8.07,9.03-8.07,4.82,0,7.99,3.57,7.99,7.4,0,5.07-2.75,8.86-6.81,8.86a3.592,3.592,0,0,1-3.09-1.61s-0.73,2.98-.89,3.55a10.839,10.839,0,0,1-1.27,2.77C1167.1,1564.16,1165.96,1565.55,1165.96,1562.88Z" transform="translate(-1151 -1534)"/>
</svg>
