<svg xmlns="http://www.w3.org/2000/svg" width="40" height="40" viewBox="0 0 40 40">
  <defs>
    <style>
      .cls-1 {
        fill: #fff;
        fill-rule: evenodd;
        opacity: 0.2;
      }
    </style>
  </defs>
  <path id="twitter" class="cls-1" d="M1035,1574a20,20,0,1,0-20-20A19.994,19.994,0,0,0,1035,1574Zm0-38.33a18.33,18.33,0,1,1-18.33,18.33A18.334,18.334,0,0,1,1035,1535.67Zm11,12.23a7.827,7.827,0,0,1-2.32.58,4.893,4.893,0,0,0,1.84-2.59,8.617,8.617,0,0,1-2.68,1.19,4.055,4.055,0,0,0-2.99-1.31,4.131,4.131,0,0,0-4.11,4.15,4.19,4.19,0,0,0,.11.95,11.619,11.619,0,0,1-8.46-4.34,4.215,4.215,0,0,0,1.27,5.55,4.082,4.082,0,0,1-1.86-.52v0.05a4.167,4.167,0,0,0,3.29,4.08,4.2,4.2,0,0,1-1.08.14,3.94,3.94,0,0,1-.77-0.07,4.105,4.105,0,0,0,3.83,2.88,8.115,8.115,0,0,1-5.09,1.78,7.934,7.934,0,0,1-.98-0.06,11.506,11.506,0,0,0,6.29,1.87,11.667,11.667,0,0,0,11.67-11.82,2.09,2.09,0,0,0-.01-0.25A8.854,8.854,0,0,0,1046,1547.9Z" transform="translate(-1015 -1534)"/>
</svg>
